<svg width="12" height="12" viewBox="0 0 12 12" fill="none" xmlns="http://www.w3.org/2000/svg">
<g clip-path="url(#clip0_1403_1258)">
<path d="M2.625 0C2.72446 0 2.81984 0.0395088 2.89016 0.109835C2.96049 0.180161 3 0.275544 3 0.375V0.75H9V0.375C9 0.275544 9.03951 0.180161 9.10983 0.109835C9.18016 0.0395088 9.27554 0 9.375 0C9.47446 0 9.56984 0.0395088 9.64017 0.109835C9.71049 0.180161 9.75 0.275544 9.75 0.375V0.75H10.5C10.8978 0.75 11.2794 0.908035 11.5607 1.18934C11.842 1.47064 12 1.85218 12 2.25V10.5C12 10.8978 11.842 11.2794 11.5607 11.5607C11.2794 11.842 10.8978 12 10.5 12H1.5C1.10218 12 0.720644 11.842 0.43934 11.5607C0.158035 11.2794 0 10.8978 0 10.5V2.25C0 1.85218 0.158035 1.47064 0.43934 1.18934C0.720644 0.908035 1.10218 0.75 1.5 0.75H2.25V0.375C2.25 0.275544 2.28951 0.180161 2.35984 0.109835C2.43016 0.0395088 2.52554 0 2.625 0ZM10.0905 2.25H1.90875C1.68375 2.25 1.5 2.418 1.5 2.625V3.375C1.5 3.582 1.683 3.75 1.90875 3.75H10.0912C10.3162 3.75 10.5 3.582 10.5 3.375V2.625C10.5 2.418 10.317 2.25 10.0905 2.25ZM6.375 5.25C6.27554 5.25 6.18016 5.28951 6.10983 5.35984C6.03951 5.43016 6 5.52554 6 5.625V6.375C6 6.47446 6.03951 6.56984 6.10983 6.64017C6.18016 6.71049 6.27554 6.75 6.375 6.75H7.125C7.22446 6.75 7.31984 6.71049 7.39017 6.64017C7.46049 6.56984 7.5 6.47446 7.5 6.375V5.625C7.5 5.52554 7.46049 5.43016 7.39017 5.35984C7.31984 5.28951 7.22446 5.25 7.125 5.25H6.375ZM8.625 5.25C8.52554 5.25 8.43016 5.28951 8.35983 5.35984C8.28951 5.43016 8.25 5.52554 8.25 5.625V6.375C8.25 6.47446 8.28951 6.56984 8.35983 6.64017C8.43016 6.71049 8.52554 6.75 8.625 6.75H9.375C9.47446 6.75 9.56984 6.71049 9.64017 6.64017C9.71049 6.56984 9.75 6.47446 9.75 6.375V5.625C9.75 5.52554 9.71049 5.43016 9.64017 5.35984C9.56984 5.28951 9.47446 5.25 9.375 5.25H8.625ZM2.25 7.875V8.625C2.25 8.72446 2.28951 8.81984 2.35984 8.89017C2.43016 8.96049 2.52554 9 2.625 9H3.375C3.47446 9 3.56984 8.96049 3.64016 8.89017C3.71049 8.81984 3.75 8.72446 3.75 8.625V7.875C3.75 7.77554 3.71049 7.68016 3.64016 7.60983C3.56984 7.53951 3.47446 7.5 3.375 7.5H2.625C2.52554 7.5 2.43016 7.53951 2.35984 7.60983C2.28951 7.68016 2.25 7.77554 2.25 7.875ZM4.875 7.5C4.77554 7.5 4.68016 7.53951 4.60984 7.60983C4.53951 7.68016 4.5 7.77554 4.5 7.875V8.625C4.5 8.72446 4.53951 8.81984 4.60984 8.89017C4.68016 8.96049 4.77554 9 4.875 9H5.625C5.72446 9 5.81984 8.96049 5.89016 8.89017C5.96049 8.81984 6 8.72446 6 8.625V7.875C6 7.77554 5.96049 7.68016 5.89016 7.60983C5.81984 7.53951 5.72446 7.5 5.625 7.5H4.875Z" fill="#8B8B8B"/>
</g>
<defs>
<clipPath id="clip0_1403_1258">
<rect width="12" height="12" fill="white"/>
</clipPath>
</defs>
</svg>
