<svg width="12" height="12" viewBox="0 0 12 12" fill="none" xmlns="http://www.w3.org/2000/svg">
<path fill-rule="evenodd" clip-rule="evenodd" d="M1.875 9C1.875 8.90054 1.91451 8.80516 1.98484 8.73483C2.05516 8.66451 2.15054 8.625 2.25 8.625H9.75C9.84946 8.625 9.94484 8.66451 10.0152 8.73483C10.0855 8.80516 10.125 8.90054 10.125 9C10.125 9.09946 10.0855 9.19484 10.0152 9.26517C9.94484 9.33549 9.84946 9.375 9.75 9.375H2.25C2.15054 9.375 2.05516 9.33549 1.98484 9.26517C1.91451 9.19484 1.875 9.09946 1.875 9ZM1.875 6C1.875 5.90054 1.91451 5.80516 1.98484 5.73484C2.05516 5.66451 2.15054 5.625 2.25 5.625H9.75C9.84946 5.625 9.94484 5.66451 10.0152 5.73484C10.0855 5.80516 10.125 5.90054 10.125 6C10.125 6.09946 10.0855 6.19484 10.0152 6.26517C9.94484 6.33549 9.84946 6.375 9.75 6.375H2.25C2.15054 6.375 2.05516 6.33549 1.98484 6.26517C1.91451 6.19484 1.875 6.09946 1.875 6ZM1.875 3C1.875 2.90054 1.91451 2.80516 1.98484 2.73484C2.05516 2.66451 2.15054 2.625 2.25 2.625H9.75C9.84946 2.625 9.94484 2.66451 10.0152 2.73484C10.0855 2.80516 10.125 2.90054 10.125 3C10.125 3.09946 10.0855 3.19484 10.0152 3.26516C9.94484 3.33549 9.84946 3.375 9.75 3.375H2.25C2.15054 3.375 2.05516 3.33549 1.98484 3.26516C1.91451 3.19484 1.875 3.09946 1.875 3Z" fill="#8B8B8B"/>
</svg>
