<svg width="12" height="12" viewBox="0 0 12 12" fill="none" xmlns="http://www.w3.org/2000/svg">
<g clip-path="url(#clip0_1403_1262)">
<path d="M12 6C12 8.8995 9.3135 11.25 6 11.25C5.40571 11.2513 4.81384 11.1742 4.23975 11.0205C3.80175 11.2425 2.796 11.6685 1.104 11.946C0.954 11.97 0.84 11.814 0.89925 11.6745C1.16475 11.0475 1.40475 10.212 1.47675 9.45C0.558 8.5275 0 7.32 0 6C0 3.1005 2.6865 0.75 6 0.75C9.3135 0.75 12 3.1005 12 6ZM3.375 3.75C3.27554 3.75 3.18016 3.78951 3.10984 3.85984C3.03951 3.93016 3 4.02554 3 4.125C3 4.22446 3.03951 4.31984 3.10984 4.39016C3.18016 4.46049 3.27554 4.5 3.375 4.5H8.625C8.72446 4.5 8.81984 4.46049 8.89017 4.39016C8.96049 4.31984 9 4.22446 9 4.125C9 4.02554 8.96049 3.93016 8.89017 3.85984C8.81984 3.78951 8.72446 3.75 8.625 3.75H3.375ZM3.375 5.625C3.27554 5.625 3.18016 5.66451 3.10984 5.73484C3.03951 5.80516 3 5.90054 3 6C3 6.09946 3.03951 6.19484 3.10984 6.26517C3.18016 6.33549 3.27554 6.375 3.375 6.375H8.625C8.72446 6.375 8.81984 6.33549 8.89017 6.26517C8.96049 6.19484 9 6.09946 9 6C9 5.90054 8.96049 5.80516 8.89017 5.73484C8.81984 5.66451 8.72446 5.625 8.625 5.625H3.375ZM3.375 7.5C3.27554 7.5 3.18016 7.53951 3.10984 7.60983C3.03951 7.68016 3 7.77554 3 7.875C3 7.97446 3.03951 8.06984 3.10984 8.14017C3.18016 8.21049 3.27554 8.25 3.375 8.25H6.375C6.47446 8.25 6.56984 8.21049 6.64017 8.14017C6.71049 8.06984 6.75 7.97446 6.75 7.875C6.75 7.77554 6.71049 7.68016 6.64017 7.60983C6.56984 7.53951 6.47446 7.5 6.375 7.5H3.375Z" fill="#8B8B8B"/>
</g>
<defs>
<clipPath id="clip0_1403_1262">
<rect width="12" height="12" fill="white"/>
</clipPath>
</defs>
</svg>
