<svg width="12" height="12" viewBox="0 0 12 12" fill="none" xmlns="http://www.w3.org/2000/svg">
<path fill-rule="evenodd" clip-rule="evenodd" d="M2.25 2.625C2.15054 2.625 2.05516 2.66451 1.98484 2.73484C1.91451 2.80516 1.875 2.90054 1.875 3V9C1.875 9.09946 1.91451 9.19484 1.98484 9.26517C2.05516 9.33549 2.15054 9.375 2.25 9.375H9.75C9.84946 9.375 9.94484 9.33549 10.0152 9.26517C10.0855 9.19484 10.125 9.09946 10.125 9V3C10.125 2.90054 10.0855 2.80516 10.0152 2.73484C9.94484 2.66451 9.84946 2.625 9.75 2.625H2.25ZM1.25 3C1.25 2.53587 1.43437 2.09075 1.76256 1.76256C2.09075 1.43437 2.53587 1.25 3 1.25H9C9.46413 1.25 9.90925 1.43437 10.2374 1.76256C10.5656 2.09075 10.75 2.53587 10.75 3V9C10.75 9.46413 10.5656 9.90925 10.2374 10.2374C9.90925 10.5656 9.46413 10.75 9 10.75H3C2.53587 10.75 2.09075 10.5656 1.76256 10.2374C1.43437 9.90925 1.25 9.46413 1.25 9V3ZM3.375 4.5C3.375 4.40054 3.41451 4.30516 3.48484 4.23484C3.55516 4.16451 3.65054 4.125 3.75 4.125H5.25C5.34946 4.125 5.44484 4.16451 5.51517 4.23484C5.58549 4.30516 5.625 4.40054 5.625 4.5C5.625 4.59946 5.58549 4.69484 5.51517 4.76517C5.44484 4.83549 5.34946 4.875 5.25 4.875H3.75C3.65054 4.875 3.55516 4.83549 3.48484 4.76517C3.41451 4.69484 3.375 4.59946 3.375 4.5ZM3.375 6C3.375 5.90054 3.41451 5.80516 3.48484 5.73484C3.55516 5.66451 3.65054 5.625 3.75 5.625H8.25C8.34946 5.625 8.44484 5.66451 8.51517 5.73484C8.58549 5.80516 8.625 5.90054 8.625 6C8.625 6.09946 8.58549 6.19484 8.51517 6.26517C8.44484 6.33549 8.34946 6.375 8.25 6.375H3.75C3.65054 6.375 3.55516 6.33549 3.48484 6.26517C3.41451 6.19484 3.375 6.09946 3.375 6ZM3.375 7.5C3.375 7.40054 3.41451 7.30516 3.48484 7.23484C3.55516 7.16451 3.65054 7.125 3.75 7.125H6.75C6.84946 7.125 6.94484 7.16451 7.01517 7.23484C7.08549 7.30516 7.125 7.40054 7.125 7.5C7.125 7.59946 7.08549 7.69484 7.01517 7.76517C6.94484 7.83549 6.84946 7.875 6.75 7.875H3.75C3.65054 7.875 3.55516 7.83549 3.48484 7.76517C3.41451 7.69484 3.375 7.59946 3.375 7.5Z" fill="#8B8B8B"/>
</svg>
