<svg width="56" height="23" viewBox="0 0 56 23" fill="none" xmlns="http://www.w3.org/2000/svg">
<rect x="0.5" y="0.5" width="55" height="22" rx="6.5" stroke="#1D99DD"/>
<path d="M30.808 7.66V8.776H27.268V11.236H30.028V12.352H27.268V16H25.9V7.66H30.808ZM31.6198 12.664C31.6198 12 31.7558 11.412 32.0278 10.9C32.3078 10.388 32.6838 9.992 33.1558 9.712C33.6358 9.424 34.1638 9.28 34.7398 9.28C35.2598 9.28 35.7118 9.384 36.0958 9.592C36.4878 9.792 36.7998 10.044 37.0318 10.348V9.388H38.4118V16H37.0318V15.016C36.7998 15.328 36.4838 15.588 36.0838 15.796C35.6838 16.004 35.2278 16.108 34.7158 16.108C34.1478 16.108 33.6278 15.964 33.1558 15.676C32.6838 15.38 32.3078 14.972 32.0278 14.452C31.7558 13.924 31.6198 13.328 31.6198 12.664ZM37.0318 12.688C37.0318 12.232 36.9358 11.836 36.7438 11.5C36.5598 11.164 36.3158 10.908 36.0118 10.732C35.7078 10.556 35.3798 10.468 35.0278 10.468C34.6758 10.468 34.3478 10.556 34.0438 10.732C33.7398 10.9 33.4918 11.152 33.2998 11.488C33.1158 11.816 33.0238 12.208 33.0238 12.664C33.0238 13.12 33.1158 13.52 33.2998 13.864C33.4918 14.208 33.7398 14.472 34.0438 14.656C34.3558 14.832 34.6838 14.92 35.0278 14.92C35.3798 14.92 35.7078 14.832 36.0118 14.656C36.3158 14.48 36.5598 14.224 36.7438 13.888C36.9358 13.544 37.0318 13.144 37.0318 12.688ZM41.5766 7.12V16H40.2086V7.12H41.5766ZM44.7407 7.12V16H43.3727V7.12H44.7407Z" fill="#1D99DD"/>
<path d="M12.001 5C12.4751 5 12.8581 5.39102 12.8581 5.875V6.69805L13.2599 6.28789C13.5117 6.03086 13.9188 6.03086 14.1679 6.28789C14.417 6.54492 14.4197 6.96055 14.1679 7.21484L12.8555 8.55469V10.477L14.5 9.49805L14.9741 7.69063C15.0651 7.34063 15.4187 7.13281 15.7615 7.22578C16.1044 7.31875 16.3079 7.67969 16.2169 8.02969L16.0776 8.55742L16.7097 8.18008C17.1195 7.93672 17.6445 8.07891 17.8828 8.49453C18.1212 8.91016 17.9846 9.44883 17.5748 9.69219L16.8972 10.0969L17.4784 10.2555C17.8212 10.3484 18.0248 10.7094 17.9337 11.0594C17.8427 11.4094 17.4891 11.6172 17.1463 11.5242L15.333 11.0293L13.7018 12L15.333 12.9707L17.1463 12.4758C17.4891 12.3828 17.8427 12.5906 17.9337 12.9406C18.0248 13.2906 17.8212 13.6516 17.4784 13.7445L16.8972 13.9031L17.5748 14.3078C17.9846 14.5512 18.1212 15.0871 17.8828 15.5055C17.6445 15.9238 17.1195 16.0633 16.7097 15.8199L16.0776 15.4426L16.2169 15.9703C16.3079 16.3203 16.1044 16.6813 15.7615 16.7742C15.4187 16.8672 15.0651 16.6594 14.9741 16.3094L14.5 14.502L12.8581 13.523V15.4453L14.1706 16.7852C14.4223 17.0422 14.4223 17.4578 14.1706 17.7121C13.9188 17.9664 13.5117 17.9691 13.2626 17.7121L12.8608 17.302V18.125C12.8608 18.609 12.4778 19 12.0037 19C11.5296 19 11.1466 18.609 11.1466 18.125V17.302L10.7449 17.7121C10.4931 17.9691 10.086 17.9691 9.83688 17.7121C9.58779 17.4551 9.58511 17.0395 9.83688 16.7852L11.1493 15.4453V13.523L9.50476 14.502L9.03068 16.3094C8.93961 16.6594 8.58606 16.8672 8.24323 16.7742C7.90039 16.6813 7.69683 16.3203 7.7879 15.9703L7.92717 15.4426L7.28971 15.8172C6.87991 16.0605 6.35494 15.9184 6.11656 15.5027C5.87818 15.0871 6.01746 14.5484 6.42458 14.3051L7.10222 13.9004L6.521 13.7418C6.17817 13.6488 5.97461 13.2879 6.06567 12.9379C6.15674 12.5879 6.51029 12.3801 6.85313 12.473L8.66642 12.968L10.3002 12L8.66909 11.0293L6.85581 11.5242C6.51297 11.6172 6.15942 11.4094 6.06835 11.0594C5.97729 10.7094 6.18085 10.3484 6.52368 10.2555L7.1049 10.0969L6.42726 9.69219C6.01746 9.44883 5.88086 8.91289 6.11924 8.49727C6.35762 8.08164 6.88259 7.93945 7.29239 8.18281L7.92449 8.56016L7.78522 8.03242C7.69415 7.68242 7.89771 7.32148 8.24055 7.22852C8.58338 7.13555 8.93694 7.34336 9.028 7.69336L9.50208 9.50078L11.1439 10.477V8.55195L9.83153 7.21484C9.57976 6.95781 9.57976 6.54219 9.83153 6.28789C10.0833 6.03359 10.4904 6.03086 10.7395 6.28789L11.1413 6.69805V5.875C11.1413 5.39102 11.5243 5 11.9984 5H12.001Z" fill="#1D99DD"/>
</svg>
