<svg width="300" height="300" viewBox="0 0 300 300" fill="none" xmlns="http://www.w3.org/2000/svg">
<rect width="300" height="300" fill="white"/>
<path d="M206.151 108L200.423 125.692C200.214 126.338 200.696 127 201.375 127H211.636C212.311 127 212.793 126.343 212.589 125.699L207 108" stroke="#57309B" stroke-width="4"/>
<path d="M142.566 34.1968L210.991 51.9882C213.973 52.7638 213.988 56.9936 211.011 57.7898L206.774 58.923L174.926 67.4405C185.047 72.0323 189.215 87.3423 190.306 96.2632C190.472 97.6244 189.622 98.8809 188.321 99.3136L142.764 114.465C142.145 114.671 141.475 114.669 140.857 114.46L95.3395 99.082C94.4054 98.7665 93.6683 98.0147 93.4871 97.0455C91.3519 85.6229 100.722 72.1579 105.902 66.6482L72.9335 57.7889C69.9608 56.9901 69.9755 52.7672 72.9537 51.9891L141.053 34.1976C141.549 34.068 142.07 34.0677 142.566 34.1968Z" fill="#FAB162"/>
<path d="M105.902 66.6482L72.9335 57.7889C69.9608 56.9901 69.9755 52.7672 72.9537 51.9891L141.053 34.1976C141.549 34.068 142.07 34.0677 142.566 34.1968L210.991 51.9882C213.973 52.7638 213.988 56.9936 211.011 57.7898L206.774 58.923M105.902 66.6482L141.033 76.0887C141.542 76.2254 142.078 76.2258 142.587 76.0896L174.926 67.4405M105.902 66.6482C100.722 72.1579 91.3519 85.6229 93.4871 97.0455C93.6683 98.0147 94.4054 98.7665 95.3395 99.082L140.857 114.46C141.475 114.669 142.145 114.671 142.764 114.465L188.321 99.3136C189.622 98.8809 190.472 97.6244 190.306 96.2632C189.215 87.3423 185.047 72.0323 174.926 67.4405M174.926 67.4405L206.774 58.923M206.774 58.923V95.4802" stroke="#57309B" stroke-width="5"/>
<path d="M206.5 96C209.538 96 212 98.4624 212 101.5C212 104.538 209.538 107 206.5 107C203.462 107 201 104.538 201 101.5C201 98.4624 203.462 96 206.5 96Z" fill="#FAB162" stroke="#57309B" stroke-width="4"/>
<path d="M203.083 245.134C199.421 245.134 196.429 242.182 196.385 238.514C196.34 234.802 199.287 231.76 202.994 231.715C207.415 231.67 211.077 230.999 214.203 229.657C216.883 228.539 219.116 226.929 221.125 224.737C222.376 223.35 223.492 221.785 224.564 219.906C225.859 217.625 227.065 214.851 228.27 211.496C229.03 209.394 229.655 206.665 230.235 203.445C230.727 200.582 231.129 197.317 231.396 193.693C231.843 188.147 232.022 182.824 232.022 179.335C231.798 179.2 231.575 179.066 231.396 178.932L221.974 173.788C218.714 171.999 217.553 167.928 219.294 164.663C219.696 163.902 220.232 163.276 220.857 162.739V162.65C219.116 159.384 220.366 155.314 223.626 153.614C223.939 153.435 224.207 153.346 224.519 153.211C224.608 152.317 224.876 151.467 225.278 150.662C226.127 149.096 227.511 147.933 229.253 147.396C229.878 147.217 230.548 147.083 231.218 147.083C233.272 147.083 235.148 147.978 236.354 149.499C236.577 149.454 236.755 149.409 236.979 149.409C237.247 149.409 237.515 149.364 237.827 149.364C241.177 149.364 244.035 151.869 244.481 155.224V155.716C245.33 155.716 246.089 155.895 246.848 156.208C250.242 157.595 251.894 161.531 250.51 164.976L246.446 174.906C246.223 175.398 245.955 175.89 245.642 176.338C245.553 176.427 245.508 176.561 245.419 176.651V177.366C245.419 180.184 245.374 184.568 245.062 189.533C244.705 195.572 244.169 200.985 243.365 205.592C242.695 209.618 241.846 212.973 240.819 215.88C239.122 220.622 237.425 224.379 235.371 227.689C232.826 231.894 229.878 235.204 226.35 237.843C223.76 239.811 220.857 241.377 217.731 242.54C213.444 244.106 208.487 244.956 203.083 245.045H202.994L203.083 245.134Z" fill="#57309B"/>
<mask id="mask0_1_2" style="mask-type:luminance" maskUnits="userSpaceOnUse" x="88" y="51" width="108" height="215">
<path d="M195.179 51H88V265.711H195.179V51Z" fill="white"/>
</mask>
<g mask="url(#mask0_1_2)">
<path d="M91.4827 124.181V215.388C91.4827 241.332 112.472 262.356 138.373 262.356H144.938C170.84 262.356 191.829 241.332 191.829 215.388V124.181C191.829 98.2363 170.84 77.2125 144.938 77.2125H138.373C112.472 77.2125 91.4827 98.2363 91.4827 124.181Z" fill="white" stroke="#57309B" stroke-width="5"/>
<path d="M98.0482 103.828V203.132C98.0482 227.019 117.385 246.387 141.232 246.387C165.08 246.387 184.417 227.019 184.417 203.132V103.828C184.417 79.9417 165.08 60.573 141.232 60.573C117.385 60.573 98.0482 79.9417 98.0482 103.828Z" fill="#73FFD3" stroke="#57309B" stroke-width="5"/>
<path d="M113.324 200.895L152.042 249.742C159.187 258.733 172.496 260.567 181.829 253.857C191.118 247.147 192.904 234.399 185.759 225.408L146.996 176.561C139.851 167.57 126.543 165.736 117.209 172.446C107.92 179.156 106.134 191.904 113.279 200.895H113.324Z" fill="#FF6708" stroke="#57309B" stroke-width="5"/>
<path d="M169.636 238.648C169.457 234.354 163.518 227.197 156.64 227.242" stroke="#57309B" stroke-width="5" stroke-linecap="round" stroke-linejoin="round"/>
<path d="M91.3516 104.633V179.827C91.3516 207.605 113.815 230.105 141.547 230.105C169.28 230.105 191.743 207.605 191.743 179.827V104.633C191.743 76.855 169.28 54.3551 141.547 54.3551C113.815 54.3551 91.3516 76.855 91.3516 104.633Z" fill="white" stroke="#57309B" stroke-width="5"/>
<path d="M131.542 178.127C131.542 173.475 127.791 169.718 123.146 169.718C118.502 169.718 114.75 173.475 114.75 178.127C114.75 182.779 118.502 186.537 123.146 186.537C127.791 186.537 131.542 182.779 131.542 178.127ZM168.385 178.127C168.385 173.475 164.633 169.718 159.989 169.718C155.344 169.718 151.593 173.475 151.593 178.127C151.593 182.779 155.344 186.537 159.989 186.537C164.633 186.537 168.385 182.779 168.385 178.127Z" fill="#57309B"/>
<path d="M191.471 124.807C186.916 119.931 175.261 111.164 165.034 115.413M191.471 104.454C186.916 99.5784 175.261 90.8111 165.034 95.0606M191.471 145.607C186.916 140.731 175.261 131.964 165.034 136.213" stroke="#57309B" stroke-width="5" stroke-linecap="round" stroke-linejoin="round"/>
</g>
<path d="M245.194 160.413C244.033 159.966 242.738 160.503 242.292 161.621L241.175 164.349L240.103 155.806C239.969 154.598 238.853 153.703 237.603 153.882C236.352 154.061 235.504 155.135 235.682 156.387L236.531 163.231L233.449 153.211C233.092 152.048 231.842 151.377 230.681 151.735C229.519 152.093 228.85 153.345 229.207 154.508L232.288 164.528C232.199 164.573 232.154 164.663 232.065 164.707L228.85 158.534C228.269 157.416 226.929 157.013 225.813 157.595C224.696 158.176 224.294 159.518 224.875 160.637L228.224 166.989L226.349 165.96C225.277 165.378 223.893 165.781 223.312 166.854C222.731 167.928 223.133 169.315 224.205 169.896L233.851 175.174C234.655 175.801 235.593 176.159 236.575 176.293V177.456C236.575 180.99 236.486 187.341 235.906 194.096C235.638 197.451 235.236 200.94 234.655 204.205C234.119 207.471 233.405 210.512 232.512 212.972C231.35 216.238 230.055 219.324 228.492 222.098C227.331 224.155 225.991 226.079 224.473 227.734C222.196 230.239 219.471 232.296 215.988 233.773C212.549 235.249 208.352 236.099 203.082 236.188C201.832 236.188 200.849 237.217 200.894 238.469C200.894 239.722 201.921 240.706 203.171 240.661C208.218 240.572 212.594 239.811 216.345 238.425C219.159 237.396 221.66 236.009 223.803 234.399C227.063 231.939 229.609 228.852 231.708 225.497C233.762 222.098 235.37 218.385 236.754 214.538C237.737 211.675 238.496 208.455 239.076 205.01C239.969 199.866 240.416 194.364 240.684 189.444C240.952 184.523 240.997 180.229 240.997 177.5C240.997 174.772 240.997 175.622 240.997 175.13C241.398 174.772 241.711 174.369 242.024 173.922C242.158 173.743 242.292 173.564 242.381 173.34L246.445 163.41C246.891 162.247 246.356 160.95 245.239 160.503L245.194 160.413Z" fill="white"/>
<path d="M165.347 178.663C167.444 178.663 169.143 177.001 169.143 174.951C169.143 172.9 167.444 171.238 165.347 171.238C163.251 171.238 161.551 172.9 161.551 174.951C161.551 177.001 163.251 178.663 165.347 178.663Z" fill="white"/>
<path d="M128.149 178.663C130.245 178.663 131.945 177.001 131.945 174.951C131.945 172.9 130.245 171.238 128.149 171.238C126.053 171.238 124.353 172.9 124.353 174.951C124.353 177.001 126.053 178.663 128.149 178.663Z" fill="white"/>
</svg>
