<svg width="79" height="23" viewBox="0 0 79 23" fill="none" xmlns="http://www.w3.org/2000/svg">
<rect x="0.5" y="0.5" width="78" height="22" rx="6.5" stroke="#57309B"/>
<path d="M33.684 7.66V16H32.316V10.288L29.772 16H28.824L26.268 10.288V16H24.9V7.66H26.376L29.304 14.2L32.22 7.66H33.684ZM41.47 9.388V16H40.102V15.22C39.886 15.492 39.602 15.708 39.25 15.868C38.906 16.02 38.538 16.096 38.146 16.096C37.626 16.096 37.158 15.988 36.742 15.772C36.334 15.556 36.01 15.236 35.77 14.812C35.538 14.388 35.422 13.876 35.422 13.276V9.388H36.778V13.072C36.778 13.664 36.926 14.12 37.222 14.44C37.518 14.752 37.922 14.908 38.434 14.908C38.946 14.908 39.35 14.752 39.646 14.44C39.95 14.12 40.102 13.664 40.102 13.072V9.388H41.47ZM44.643 7.12V16H43.275V7.12H44.643ZM48.0351 10.504V14.164C48.0351 14.412 48.0911 14.592 48.2031 14.704C48.3231 14.808 48.5231 14.86 48.8031 14.86H49.6431V16H48.5631C47.9471 16 47.4751 15.856 47.1471 15.568C46.8191 15.28 46.6551 14.812 46.6551 14.164V10.504H45.8751V9.388H46.6551V7.744H48.0351V9.388H49.6431V10.504H48.0351ZM51.5999 8.512C51.3519 8.512 51.1439 8.428 50.9759 8.26C50.8079 8.092 50.7239 7.884 50.7239 7.636C50.7239 7.388 50.8079 7.18 50.9759 7.012C51.1439 6.844 51.3519 6.76 51.5999 6.76C51.8399 6.76 52.0439 6.844 52.2119 7.012C52.3799 7.18 52.4639 7.388 52.4639 7.636C52.4639 7.884 52.3799 8.092 52.2119 8.26C52.0439 8.428 51.8399 8.512 51.5999 8.512ZM52.2719 9.388V16H50.9039V9.388H52.2719ZM55.436 10.36C55.668 10.056 55.984 9.8 56.384 9.592C56.784 9.384 57.236 9.28 57.74 9.28C58.316 9.28 58.84 9.424 59.312 9.712C59.792 9.992 60.168 10.388 60.44 10.9C60.712 11.412 60.848 12 60.848 12.664C60.848 13.328 60.712 13.924 60.44 14.452C60.168 14.972 59.792 15.38 59.312 15.676C58.84 15.964 58.316 16.108 57.74 16.108C57.236 16.108 56.788 16.008 56.396 15.808C56.004 15.6 55.684 15.344 55.436 15.04V19.144H54.068V9.388H55.436V10.36ZM59.456 12.664C59.456 12.208 59.36 11.816 59.168 11.488C58.984 11.152 58.736 10.9 58.424 10.732C58.12 10.556 57.792 10.468 57.44 10.468C57.096 10.468 56.768 10.556 56.456 10.732C56.152 10.908 55.904 11.164 55.712 11.5C55.528 11.836 55.436 12.232 55.436 12.688C55.436 13.144 55.528 13.544 55.712 13.888C55.904 14.224 56.152 14.48 56.456 14.656C56.768 14.832 57.096 14.92 57.44 14.92C57.792 14.92 58.12 14.832 58.424 14.656C58.736 14.472 58.984 14.208 59.168 13.864C59.36 13.52 59.456 13.12 59.456 12.664ZM63.5688 7.12V16H62.2008V7.12H63.5688ZM71.4248 12.532C71.4248 12.78 71.4088 13.004 71.3768 13.204H66.3248C66.3648 13.732 66.5608 14.156 66.9128 14.476C67.2648 14.796 67.6968 14.956 68.2088 14.956C68.9448 14.956 69.4648 14.648 69.7688 14.032H71.2448C71.0448 14.64 70.6808 15.14 70.1528 15.532C69.6328 15.916 68.9848 16.108 68.2088 16.108C67.5768 16.108 67.0088 15.968 66.5048 15.688C66.0088 15.4 65.6168 15 65.3288 14.488C65.0488 13.968 64.9088 13.368 64.9088 12.688C64.9088 12.008 65.0448 11.412 65.3168 10.9C65.5968 10.38 65.9848 9.98 66.4808 9.7C66.9848 9.42 67.5608 9.28 68.2088 9.28C68.8328 9.28 69.3888 9.416 69.8768 9.688C70.3648 9.96 70.7448 10.344 71.0168 10.84C71.2888 11.328 71.4248 11.892 71.4248 12.532ZM69.9968 12.1C69.9888 11.596 69.8088 11.192 69.4568 10.888C69.1048 10.584 68.6688 10.432 68.1488 10.432C67.6768 10.432 67.2728 10.584 66.9368 10.888C66.6008 11.184 66.4008 11.588 66.3368 12.1H69.9968Z" fill="#57309B"/>
<path d="M11.1369 9.09033V13.9097C10.625 13.8326 10.1471 13.5941 9.77651 13.2235C9.31971 12.7657 9.06227 12.1466 9.06227 11.4995C9.06227 10.8524 9.31971 10.2333 9.77651 9.77652C10.1471 9.40588 10.625 9.16747 11.1369 9.09033Z" fill="#57309B"/>
<path d="M9.20151 9.20251C8.59245 9.81157 8.24986 10.638 8.24986 11.4995C8.24986 12.361 8.59245 13.1884 9.20151 13.7975C9.72542 14.3204 10.4086 14.647 11.1369 14.7291V16.5953L9.20752 17.9277C9.09332 18.0068 8.94807 18.0218 8.82185 17.9687C8.69463 17.9146 8.60347 17.8004 8.57743 17.6662L8.07255 14.9274L5.3338 14.4216C5.19857 14.3965 5.08437 14.3054 5.03128 14.1781C4.97818 14.0509 4.99321 13.9067 5.07235 13.7925L6.65309 11.4995L5.07235 9.20752C4.99321 9.09332 4.97818 8.94907 5.03128 8.82185C5.08437 8.69463 5.19857 8.60347 5.3338 8.57843L8.07255 8.07255L8.57743 5.3338C8.60347 5.19957 8.69463 5.08537 8.82185 5.03128C8.94807 4.97818 9.09332 4.99321 9.20752 5.07235L11.1369 6.40466V8.2719C10.4086 8.35304 9.72542 8.6786 9.20151 9.20251Z" fill="#57309B"/>
<path d="M17.0752 14.7541C16.8498 15.1428 16.3519 15.272 15.9632 15.0466L15.3642 14.696L15.4964 15.1859C15.5826 15.5104 15.3892 15.846 15.0647 15.9322C14.7401 16.0183 14.4045 15.826 14.3184 15.5004L13.8686 13.8225L12.3129 12.9139V14.699L13.5571 15.9422C13.7955 16.1816 13.7955 16.5673 13.5571 16.8027C13.3187 17.0391 12.932 17.0421 12.6966 16.8027L12.3159 16.422V17.1863C12.3159 17.5039 12.1346 17.7774 11.8691 17.9116V5.08936C12.1336 5.22359 12.3129 5.49706 12.3129 5.81361V6.57794L12.6936 6.19728C12.932 5.95786 13.3187 5.95786 13.5541 6.19728C13.7905 6.43569 13.7925 6.82136 13.5541 7.05777L12.3099 8.30093V10.086L13.8686 9.17745L14.3184 7.49954C14.4045 7.17397 14.7401 6.98164 15.0647 7.06779C15.3892 7.15394 15.5826 7.48852 15.4964 7.81408L15.3642 8.30393L15.9632 7.95332C16.3519 7.72793 16.8498 7.85916 17.0752 8.24583C17.3016 8.6315 17.1713 9.13137 16.7837 9.35776L16.1416 9.73341L16.6915 9.88067C17.0171 9.96682 17.2094 10.3014 17.1233 10.627C17.0371 10.9515 16.7025 11.1449 16.377 11.0587L14.659 10.5989L13.1123 11.4995L14.659 12.401L16.377 11.9412C16.7025 11.8551 17.0371 12.0484 17.1233 12.373C17.2094 12.6986 17.0171 13.0331 16.6915 13.1193L16.1416 13.2665L16.7837 13.6422C17.1713 13.8686 17.3016 14.3665 17.0752 14.7541Z" fill="#57309B"/>
</svg>
