<svg width="72" height="23" viewBox="0 0 72 23" fill="none" xmlns="http://www.w3.org/2000/svg">
<rect x="0.5" y="0.5" width="71" height="22" rx="7.5" stroke="#F9A03F"/>
<path d="M27.72 15.084C27.136 15.084 26.608 14.984 26.136 14.784C25.672 14.584 25.304 14.296 25.032 13.92C24.76 13.544 24.62 13.1 24.612 12.588H26.412C26.436 12.932 26.556 13.204 26.772 13.404C26.996 13.604 27.3 13.704 27.684 13.704C28.076 13.704 28.384 13.612 28.608 13.428C28.832 13.236 28.944 12.988 28.944 12.684C28.944 12.436 28.868 12.232 28.716 12.072C28.564 11.912 28.372 11.788 28.14 11.7C27.916 11.604 27.604 11.5 27.204 11.388C26.66 11.228 26.216 11.072 25.872 10.92C25.536 10.76 25.244 10.524 24.996 10.212C24.756 9.892 24.636 9.468 24.636 8.94C24.636 8.444 24.76 8.012 25.008 7.644C25.256 7.276 25.604 6.996 26.052 6.804C26.5 6.604 27.012 6.504 27.588 6.504C28.452 6.504 29.152 6.716 29.688 7.14C30.232 7.556 30.532 8.14 30.588 8.892H28.74C28.724 8.604 28.6 8.368 28.368 8.184C28.144 7.992 27.844 7.896 27.468 7.896C27.14 7.896 26.876 7.98 26.676 8.148C26.484 8.316 26.388 8.56 26.388 8.88C26.388 9.104 26.46 9.292 26.604 9.444C26.756 9.588 26.94 9.708 27.156 9.804C27.38 9.892 27.692 9.996 28.092 10.116C28.636 10.276 29.08 10.436 29.424 10.596C29.768 10.756 30.064 10.996 30.312 11.316C30.56 11.636 30.684 12.056 30.684 12.576C30.684 13.024 30.568 13.44 30.336 13.824C30.104 14.208 29.764 14.516 29.316 14.748C28.868 14.972 28.336 15.084 27.72 15.084ZM33.8205 9.312C34.0365 9.008 34.3325 8.756 34.7085 8.556C35.0925 8.348 35.5285 8.244 36.0165 8.244C36.5845 8.244 37.0965 8.384 37.5525 8.664C38.0165 8.944 38.3805 9.344 38.6445 9.864C38.9165 10.376 39.0525 10.972 39.0525 11.652C39.0525 12.332 38.9165 12.936 38.6445 13.464C38.3805 13.984 38.0165 14.388 37.5525 14.676C37.0965 14.964 36.5845 15.108 36.0165 15.108C35.5285 15.108 35.0965 15.008 34.7205 14.808C34.3525 14.608 34.0525 14.356 33.8205 14.052V18.168H32.1405V8.352H33.8205V9.312ZM37.3365 11.652C37.3365 11.252 37.2525 10.908 37.0845 10.62C36.9245 10.324 36.7085 10.1 36.4365 9.948C36.1725 9.796 35.8845 9.72 35.5725 9.72C35.2685 9.72 34.9805 9.8 34.7085 9.96C34.4445 10.112 34.2285 10.336 34.0605 10.632C33.9005 10.928 33.8205 11.276 33.8205 11.676C33.8205 12.076 33.9005 12.424 34.0605 12.72C34.2285 13.016 34.4445 13.244 34.7085 13.404C34.9805 13.556 35.2685 13.632 35.5725 13.632C35.8845 13.632 36.1725 13.552 36.4365 13.392C36.7085 13.232 36.9245 13.004 37.0845 12.708C37.2525 12.412 37.3365 12.06 37.3365 11.652ZM41.9533 9.384C42.1693 9.032 42.4493 8.756 42.7933 8.556C43.1453 8.356 43.5453 8.256 43.9933 8.256V10.02H43.5493C43.0213 10.02 42.6213 10.144 42.3493 10.392C42.0853 10.64 41.9533 11.072 41.9533 11.688V15H40.2733V8.352H41.9533V9.384ZM45.9769 7.56C45.6809 7.56 45.4329 7.468 45.2329 7.284C45.0409 7.092 44.9449 6.856 44.9449 6.576C44.9449 6.296 45.0409 6.064 45.2329 5.88C45.4329 5.688 45.6809 5.592 45.9769 5.592C46.2729 5.592 46.5169 5.688 46.7089 5.88C46.9089 6.064 47.0089 6.296 47.0089 6.576C47.0089 6.856 46.9089 7.092 46.7089 7.284C46.5169 7.468 46.2729 7.56 45.9769 7.56ZM46.8049 8.352V15H45.1249V8.352H46.8049ZM52.1487 8.256C52.9407 8.256 53.5807 8.508 54.0687 9.012C54.5567 9.508 54.8007 10.204 54.8007 11.1V15H53.1207V11.328C53.1207 10.8 52.9887 10.396 52.7247 10.116C52.4607 9.828 52.1007 9.684 51.6447 9.684C51.1807 9.684 50.8127 9.828 50.5407 10.116C50.2767 10.396 50.1447 10.8 50.1447 11.328V15H48.4647V8.352H50.1447V9.18C50.3687 8.892 50.6527 8.668 50.9967 8.508C51.3487 8.34 51.7327 8.256 52.1487 8.256ZM59.0023 8.244C59.4983 8.244 59.9343 8.344 60.3103 8.544C60.6863 8.736 60.9823 8.988 61.1983 9.3V8.352H62.8903V15.048C62.8903 15.664 62.7663 16.212 62.5183 16.692C62.2703 17.18 61.8983 17.564 61.4023 17.844C60.9063 18.132 60.3063 18.276 59.6023 18.276C58.6583 18.276 57.8823 18.056 57.2743 17.616C56.6743 17.176 56.3343 16.576 56.2543 15.816H57.9223C58.0103 16.12 58.1983 16.36 58.4863 16.536C58.7823 16.72 59.1383 16.812 59.5543 16.812C60.0423 16.812 60.4383 16.664 60.7423 16.368C61.0463 16.08 61.1983 15.64 61.1983 15.048V14.016C60.9823 14.328 60.6823 14.588 60.2983 14.796C59.9223 15.004 59.4903 15.108 59.0023 15.108C58.4423 15.108 57.9303 14.964 57.4663 14.676C57.0023 14.388 56.6343 13.984 56.3623 13.464C56.0983 12.936 55.9663 12.332 55.9663 11.652C55.9663 10.98 56.0983 10.384 56.3623 9.864C56.6343 9.344 56.9983 8.944 57.4543 8.664C57.9183 8.384 58.4343 8.244 59.0023 8.244ZM61.1983 11.676C61.1983 11.268 61.1183 10.92 60.9583 10.632C60.7983 10.336 60.5823 10.112 60.3103 9.96C60.0383 9.8 59.7463 9.72 59.4343 9.72C59.1223 9.72 58.8343 9.796 58.5703 9.948C58.3063 10.1 58.0903 10.324 57.9223 10.62C57.7623 10.908 57.6823 11.252 57.6823 11.652C57.6823 12.052 57.7623 12.404 57.9223 12.708C58.0903 13.004 58.3063 13.232 58.5703 13.392C58.8423 13.552 59.1303 13.632 59.4343 13.632C59.7463 13.632 60.0383 13.556 60.3103 13.404C60.5823 13.244 60.7983 13.02 60.9583 12.732C61.1183 12.436 61.1983 12.084 61.1983 11.676Z" fill="#F9A03F"/>
<path d="M14.8843 4.03382C15.021 4.09123 15.1195 4.21426 15.1468 4.35916L15.6909 7.30913L18.6408 7.85046C18.7857 7.8778 18.9088 7.97622 18.9662 8.11292C19.0236 8.24962 19.0072 8.40545 18.9224 8.52848L17.2192 11L18.9224 13.4688C19.0072 13.5918 19.0236 13.7477 18.9662 13.8843C18.9088 14.021 18.7857 14.1195 18.6408 14.1468L15.6909 14.6909L15.1468 17.6408C15.1195 17.7857 15.021 17.9088 14.8843 17.9662C14.7477 18.0236 14.5918 18.0072 14.4688 17.9224L12 16.2192L9.53122 17.9224C9.40819 18.0072 9.25235 18.0236 9.11565 17.9662C8.97895 17.9088 8.88053 17.7857 8.85319 17.6408L8.30913 14.6909L5.35916 14.1468C5.21426 14.1195 5.09123 14.021 5.03382 13.8843C4.97641 13.7477 4.99281 13.5918 5.07756 13.4688L6.78083 11L5.07756 8.53122C4.99281 8.40819 4.97641 8.25235 5.03382 8.11565C5.09123 7.97895 5.21426 7.88053 5.35916 7.85319L8.30913 7.30913L8.85319 4.35916C8.88053 4.21426 8.97895 4.09123 9.11565 4.03382C9.25235 3.97641 9.40819 3.99281 9.53122 4.07756L12 5.78083L14.4688 4.07756C14.5918 3.99281 14.7477 3.97641 14.8843 4.03382ZM9.37538 11C9.37538 10.3039 9.6519 9.63633 10.1441 9.14411C10.6363 8.6519 11.3039 8.37538 12 8.37538C12.6961 8.37538 13.3637 8.6519 13.8559 9.14411C14.3481 9.63633 14.6246 10.3039 14.6246 11C14.6246 11.6961 14.3481 12.3637 13.8559 12.8559C13.3637 13.3481 12.6961 13.6246 12 13.6246C11.3039 13.6246 10.6363 13.3481 10.1441 12.8559C9.6519 12.3637 9.37538 11.6961 9.37538 11ZM15.4995 11C15.4995 10.0719 15.1308 9.18177 14.4745 8.52548C13.8182 7.8692 12.9281 7.50051 12 7.50051C11.0719 7.50051 10.1818 7.8692 9.52548 8.52548C8.8692 9.18177 8.50051 10.0719 8.50051 11C8.50051 11.9281 8.8692 12.8182 9.52548 13.4745C10.1818 14.1308 11.0719 14.4995 12 14.4995C12.9281 14.4995 13.8182 14.1308 14.4745 13.4745C15.1308 12.8182 15.4995 11.9281 15.4995 11Z" fill="#F9A03F"/>
</svg>
